<svg xmlns="http://www.w3.org/2000/svg" xmlns:xlink="http://www.w3.org/1999/xlink" width="54" height="54" viewBox="0 0 54 54"><defs><linearGradient id="a" x1="0.5" x2="0.5" y2="1" gradientUnits="objectBoundingBox"><stop offset="0" stop-color="#b057eb"/><stop offset="1" stop-color="#123aa7"/></linearGradient></defs><circle cx="27" cy="27" r="27" fill="url(#a)"/><g transform="translate(12.904 16.496)"><path d="M22.731,6.2a3.194,3.194,0,0,1,4.593-.414,3.43,3.43,0,0,1,.4,4.732L13.058,28.531a3.194,3.194,0,0,1-4.592.414,3.43,3.43,0,0,1-.4-4.733Z" transform="translate(-0.297 -5)" fill="#fff"/><path d="M3,14.242a3.5,3.5,0,1,1,3.5,3.5A3.5,3.5,0,0,1,3,14.242Z" transform="translate(-3 0.262)" fill="#fff"/></g></svg>