<svg xmlns="http://www.w3.org/2000/svg" xmlns:xlink="http://www.w3.org/1999/xlink" width="54" height="54" viewBox="0 0 54 54"><defs><linearGradient id="a" x1="0.5" x2="0.5" y2="1" gradientUnits="objectBoundingBox"><stop offset="0" stop-color="#57ebde"/><stop offset="1" stop-color="#123aa7"/></linearGradient></defs><path d="M27,0A27,27,0,0,1,44.131,47.871,26.7,26.7,0,0,1,27,54,27,27,0,0,1,27,0Z" fill="url(#a)"/><g transform="translate(17 17)"><path d="M8.4,6.982c-.762,0-1.38.365-1.38.813s.618.813,1.38.813H19.368c.762,0,1.38-.365,1.38-.813s-.618-.813-1.38-.813Z" transform="translate(-3.762 -2.344)" fill="#fff"/><path d="M7.016,11.81c0-.447.618-.813,1.38-.813H19.368c.762,0,1.38.365,1.38.813s-.618.813-1.38.813H8.4C7.634,12.622,7.016,12.257,7.016,11.81Z" transform="translate(-3.762 -1.683)" fill="#fff"/><path d="M8.4,15.012c-.762,0-1.38.365-1.38.813s.618.813,1.38.813H19.377c.762,0,1.38-.365,1.38-.813s-.618-.813-1.38-.813Z" transform="translate(-3.764 -1.021)" fill="#fff"/><path d="M3,6.376A3.376,3.376,0,0,1,6.376,3h13.5a3.376,3.376,0,0,1,3.376,3.376v13.5a3.376,3.376,0,0,1-3.376,3.376H6.376A3.376,3.376,0,0,1,3,19.878ZM6.376,5.25h13.5A1.125,1.125,0,0,1,21,6.376v13.5A1.125,1.125,0,0,1,19.878,21H6.376A1.125,1.125,0,0,1,5.25,19.878V6.376A1.125,1.125,0,0,1,6.376,5.25Z" transform="translate(-3 -3)" fill="#fff" fill-rule="evenodd"/></g></svg>